<svg width="65" height="65" viewBox="0 0 65 65" fill="none" xmlns="http://www.w3.org/2000/svg">
<path d="M48.75 27.0833C48.75 27.0833 32.5 37.9167 32.5 56.875M25.3202 30.2873C23.1743 31.889 20.5233 32.6643 17.8526 32.4713C15.1818 32.2784 12.6698 31.13 10.7764 29.2365C4.21145 22.6742 5.52228 8.23333 5.52228 8.23333C5.52228 8.23333 19.9658 6.91979 26.5281 13.4848C27.764 14.7158 28.6925 16.2207 29.2383 17.8775C29.7841 19.5342 29.9319 21.2963 29.6698 23.0208" stroke="#2C3D2B" stroke-width="1.5" stroke-linecap="round" stroke-linejoin="round"/>
<path d="M40.5275 34.7154C38.7988 32.8348 37.8637 30.3589 37.9177 27.8051C37.9717 25.2512 39.0106 22.8171 40.8173 21.0113C46.651 15.1775 59.4885 16.3448 59.4885 16.3448C59.4885 16.3448 60.6531 29.1823 54.8194 35.0161C53.8504 35.9868 52.6899 36.7453 51.4119 37.2433C50.1339 37.7413 48.7662 37.9678 47.3958 37.9086M16.25 18.9583C16.25 18.9583 32.5 32.5 32.5 56.875" stroke="#2C3D2B" stroke-width="1.5" stroke-linecap="round" stroke-linejoin="round"/>
</svg>
