<svg width="65" height="65" viewBox="0 0 65 65" fill="none" xmlns="http://www.w3.org/2000/svg">
<path d="M12.1875 21.3281C12.1875 20.1278 12.4239 18.9392 12.8833 17.8302C13.3426 16.7212 14.0159 15.7135 14.8647 14.8647C15.7135 14.0159 16.7212 13.3426 17.8302 12.8833C18.9392 12.4239 20.1278 12.1875 21.3281 12.1875C22.5285 12.1875 23.7171 12.4239 24.8261 12.8833C25.9351 13.3426 26.9427 14.0159 27.7915 14.8647C28.6403 15.7135 29.3136 16.7212 29.773 17.8302C30.2323 18.9392 30.4688 20.1278 30.4688 21.3281C30.4688 23.7524 29.5057 26.0773 27.7915 27.7915C26.0773 29.5057 23.7524 30.4688 21.3281 30.4688C18.9039 30.4688 16.5789 29.5057 14.8647 27.7915C13.1505 26.0773 12.1875 23.7524 12.1875 21.3281ZM21.3281 10.1562C18.3652 10.1563 15.5235 11.3333 13.4284 13.4284C11.3333 15.5235 10.1562 18.3652 10.1562 21.3281C10.1562 24.2911 11.3333 27.1327 13.4284 29.2278C15.5235 31.323 18.3652 32.5 21.3281 32.5C24.2911 32.5 27.1327 31.323 29.2278 29.2278C31.323 27.1327 32.5 24.2911 32.5 21.3281C32.5 18.3652 31.323 15.5235 29.2278 13.4284C27.1327 11.3333 24.2911 10.1563 21.3281 10.1562ZM40.625 24.375C40.625 22.7588 41.267 21.2089 42.4098 20.0661C43.5526 18.9233 45.1026 18.2812 46.7188 18.2812C48.3349 18.2812 49.8849 18.9233 51.0277 20.0661C52.1705 21.2089 52.8125 22.7588 52.8125 24.375C52.8125 25.9912 52.1705 27.5411 51.0277 28.6839C49.8849 29.8267 48.3349 30.4688 46.7188 30.4688C45.1026 30.4688 43.5526 29.8267 42.4098 28.6839C41.267 27.5411 40.625 25.9912 40.625 24.375ZM46.7188 16.25C44.5639 16.25 42.4972 17.106 40.9735 18.6298C39.4498 20.1535 38.5938 22.2201 38.5938 24.375C38.5938 26.5299 39.4498 28.5965 40.9735 30.1202C42.4972 31.644 44.5639 32.5 46.7188 32.5C48.8736 32.5 50.9403 31.644 52.464 30.1202C53.9877 28.5965 54.8438 26.5299 54.8438 24.375C54.8438 22.2201 53.9877 20.1535 52.464 18.6298C50.9403 17.106 48.8736 16.25 46.7188 16.25ZM10.1562 36.5625C8.54009 36.5625 6.99012 37.2045 5.84732 38.3473C4.70452 39.4901 4.0625 41.0401 4.0625 42.6562C4.0625 44.9231 4.90953 47.9984 7.55422 50.503C10.205 53.0136 14.5437 54.8438 21.3261 54.8438C28.1084 54.8438 32.4513 53.0156 35.102 50.503C37.7467 47.9984 38.5938 44.9231 38.5938 42.6562C38.5938 41.0401 37.9517 39.4901 36.8089 38.3473C35.6661 37.2045 34.1162 36.5625 32.5 36.5625H10.1562ZM6.09375 42.6562C6.09375 41.5788 6.52176 40.5455 7.28363 39.7836C8.0455 39.0218 9.07881 38.5938 10.1562 38.5938H32.5C33.5774 38.5938 34.6108 39.0218 35.3726 39.7836C36.1345 40.5455 36.5625 41.5788 36.5625 42.6562C36.5625 44.4519 35.8861 46.9625 33.7066 49.0283C31.5331 51.088 27.7469 52.8125 21.3281 52.8125C14.9094 52.8125 11.1231 51.0859 8.94969 49.0283C6.77016 46.9625 6.09375 44.4519 6.09375 42.6562ZM40.5498 47.9131C40.2925 48.5252 39.9797 49.1346 39.6114 49.7413C41.4923 50.3852 43.8303 50.7812 46.7188 50.7812C52.4916 50.7812 56.0645 49.203 58.2034 47.2062C60.32 45.2319 60.9375 42.9284 60.9375 41.6406C60.9375 40.2938 60.4025 39.0022 59.4502 38.0498C58.4978 37.0975 57.2062 36.5625 55.8594 36.5625H39.3128C39.8572 37.1719 40.3223 37.8544 40.69 38.5938H55.8594C56.6675 38.5938 57.4424 38.9148 58.0138 39.4862C58.5852 40.0576 58.9062 40.8325 58.9062 41.6406C58.9062 42.3861 58.5081 44.1452 56.8161 45.7234C55.1484 47.2814 52.1178 48.75 46.7188 48.75C44.1695 48.75 42.1484 48.423 40.5498 47.9131Z" fill="#2C3D2B"/>
</svg>
