<svg width="20" height="20" viewBox="0 0 20 20" fill="none" xmlns="http://www.w3.org/2000/svg">
<path d="M16.25 18.3333C16.5815 18.3333 16.8995 18.2016 17.1339 17.9672C17.3683 17.7328 17.5 17.4149 17.5 17.0833V14.1667C17.5 13.8351 17.3683 13.5172 17.1339 13.2828C16.8995 13.0484 16.5815 12.9167 16.25 12.9167C15.275 12.9167 14.3167 12.7667 13.4 12.4583C13.1808 12.3892 12.9469 12.3813 12.7236 12.4357C12.5003 12.49 12.2962 12.6045 12.1333 12.7667L10.9333 13.9667C8.86019 12.8353 7.15631 11.1315 6.02499 9.05833L7.21666 7.86667C7.55832 7.54167 7.68332 7.05833 7.53332 6.59167C7.23332 5.68333 7.08332 4.725 7.08332 3.75C7.08332 3.41848 6.95163 3.10054 6.71721 2.86612C6.48279 2.6317 6.16484 2.5 5.83332 2.5H2.91666C2.58514 2.5 2.26719 2.6317 2.03277 2.86612C1.79835 3.10054 1.66666 3.41848 1.66666 3.75C1.66666 11.7917 8.20832 18.3333 16.25 18.3333ZM2.91666 3.33333H5.83332C5.94383 3.33333 6.04981 3.37723 6.12795 3.45537C6.20609 3.53351 6.24999 3.63949 6.24999 3.75C6.24999 4.81667 6.41666 5.85833 6.74166 6.85C6.78332 6.96667 6.77499 7.13333 6.64166 7.26667L4.99999 8.9C6.37499 11.5917 8.39166 13.6083 11.0917 15L12.7167 13.3583C12.8333 13.2417 12.9917 13.2083 13.1417 13.25C14.1417 13.5833 15.1833 13.75 16.25 13.75C16.3605 13.75 16.4665 13.7939 16.5446 13.872C16.6228 13.9502 16.6667 14.0562 16.6667 14.1667V17.0833C16.6667 17.1938 16.6228 17.2998 16.5446 17.378C16.4665 17.4561 16.3605 17.5 16.25 17.5C8.66666 17.5 2.49999 11.3333 2.49999 3.75C2.49999 3.63949 2.54389 3.53351 2.62203 3.45537C2.70017 3.37723 2.80615 3.33333 2.91666 3.33333Z" fill="#4F704E"/>
<path d="M16.25 18.3333C16.5815 18.3333 16.8995 18.2016 17.1339 17.9672C17.3683 17.7328 17.5 17.4149 17.5 17.0833V14.1667C17.5 13.8351 17.3683 13.5172 17.1339 13.2828C16.8995 13.0484 16.5815 12.9167 16.25 12.9167C15.275 12.9167 14.3167 12.7667 13.4 12.4583C13.1808 12.3892 12.9469 12.3813 12.7236 12.4357C12.5003 12.49 12.2962 12.6045 12.1333 12.7667L10.9333 13.9667C8.86019 12.8353 7.15631 11.1315 6.02499 9.05833L7.21666 7.86667C7.55832 7.54167 7.68332 7.05833 7.53332 6.59167C7.23332 5.68333 7.08332 4.725 7.08332 3.75C7.08332 3.41848 6.95163 3.10054 6.71721 2.86612C6.48279 2.6317 6.16484 2.5 5.83332 2.5H2.91666C2.58514 2.5 2.26719 2.6317 2.03277 2.86612C1.79835 3.10054 1.66666 3.41848 1.66666 3.75C1.66666 11.7917 8.20832 18.3333 16.25 18.3333ZM2.91666 3.33333H5.83332C5.94383 3.33333 6.04981 3.37723 6.12795 3.45537C6.20609 3.53351 6.24999 3.63949 6.24999 3.75C6.24999 4.81667 6.41666 5.85833 6.74166 6.85C6.78332 6.96667 6.77499 7.13333 6.64166 7.26667L4.99999 8.9C6.37499 11.5917 8.39166 13.6083 11.0917 15L12.7167 13.3583C12.8333 13.2417 12.9917 13.2083 13.1417 13.25C14.1417 13.5833 15.1833 13.75 16.25 13.75C16.3605 13.75 16.4665 13.7939 16.5446 13.872C16.6228 13.9502 16.6667 14.0562 16.6667 14.1667V17.0833C16.6667 17.1938 16.6228 17.2998 16.5446 17.378C16.4665 17.4561 16.3605 17.5 16.25 17.5C8.66666 17.5 2.49999 11.3333 2.49999 3.75C2.49999 3.63949 2.54389 3.53351 2.62203 3.45537C2.70017 3.37723 2.80615 3.33333 2.91666 3.33333Z" fill="black" fill-opacity="0.2"/>
</svg>
