<svg width="32" height="32" viewBox="0 0 32 32" fill="none" xmlns="http://www.w3.org/2000/svg">
<mask id="mask0_5_47" style="mask-type:alpha" maskUnits="userSpaceOnUse" x="0" y="0" width="32" height="32">
<rect width="32" height="32" fill="#D9D9D9"/>
</mask>
<g mask="url(#mask0_5_47)">
<path d="M7.077 28.6667C6.41212 28.6667 5.84412 28.4312 5.37301 27.9603C4.90212 27.4892 4.66667 26.9212 4.66667 26.2563V11.077C4.66667 10.4121 4.90212 9.84411 5.37301 9.373C5.84412 8.90211 6.41212 8.66666 7.077 8.66666H10C10 7.00178 10.5838 5.58555 11.7513 4.418C12.9189 3.25044 14.3351 2.66666 16 2.66666C17.6649 2.66666 19.0811 3.25044 20.2487 4.418C21.4162 5.58555 22 7.00178 22 8.66666H24.923C25.5879 8.66666 26.1559 8.90211 26.627 9.373C27.0979 9.84411 27.3333 10.4121 27.3333 11.077V26.2563C27.3333 26.9212 27.0979 27.4892 26.627 27.9603C26.1559 28.4312 25.5879 28.6667 24.923 28.6667H7.077ZM7.077 26.6667H24.923C25.0257 26.6667 25.1197 26.6239 25.205 26.5383C25.2906 26.453 25.3333 26.359 25.3333 26.2563V11.077C25.3333 10.9743 25.2906 10.8803 25.205 10.795C25.1197 10.7094 25.0257 10.6667 24.923 10.6667H7.077C6.97434 10.6667 6.88034 10.7094 6.79501 10.795C6.70945 10.8803 6.66667 10.9743 6.66667 11.077V26.2563C6.66667 26.359 6.70945 26.453 6.79501 26.5383C6.88034 26.6239 6.97434 26.6667 7.077 26.6667ZM16 18C17.6649 18 19.0811 17.4162 20.2487 16.2487C21.4162 15.0811 22 13.6649 22 12H20C20 13.1111 19.6111 14.0556 18.8333 14.8333C18.0556 15.6111 17.1111 16 16 16C14.8889 16 13.9444 15.6111 13.1667 14.8333C12.3889 14.0556 12 13.1111 12 12H10C10 13.6649 10.5838 15.0811 11.7513 16.2487C12.9189 17.4162 14.3351 18 16 18ZM12 8.66666H20C20 7.55555 19.6111 6.61111 18.8333 5.83333C18.0556 5.05555 17.1111 4.66666 16 4.66666C14.8889 4.66666 13.9444 5.05555 13.1667 5.83333C12.3889 6.61111 12 7.55555 12 8.66666Z" fill="#2C3D2B"/>
</g>
</svg>
