<svg width="105" height="21" viewBox="0 0 105 21" fill="none" xmlns="http://www.w3.org/2000/svg">
<path d="M10.5 15.1113L14.1312 17.3075C14.7962 17.71 15.61 17.115 15.435 16.3625L14.4725 12.2325L17.6837 9.45004C18.27 8.94254 17.955 7.98004 17.185 7.91879L12.9587 7.56004L11.305 3.65754C11.0075 2.94879 9.99247 2.94879 9.69497 3.65754L8.04122 7.55129L3.81497 7.91004C3.04497 7.97129 2.72997 8.93379 3.31622 9.44129L6.52747 12.2238L5.56497 16.3538C5.38997 17.1063 6.20372 17.7013 6.86872 17.2988L10.5 15.1113Z" fill="#D8B87B"/>
<path d="M31.5 15.1113L35.1312 17.3075C35.7962 17.71 36.61 17.115 36.435 16.3625L35.4725 12.2325L38.6837 9.45004C39.27 8.94254 38.955 7.98004 38.185 7.91879L33.9587 7.56004L32.305 3.65754C32.0075 2.94879 30.9925 2.94879 30.695 3.65754L29.0412 7.55129L24.815 7.91004C24.045 7.97129 23.73 8.93379 24.3162 9.44129L27.5275 12.2238L26.565 16.3538C26.39 17.1063 27.2037 17.7013 27.8687 17.2988L31.5 15.1113Z" fill="#D8B87B"/>
<path d="M52.5 15.1113L56.1312 17.3075C56.7962 17.71 57.61 17.115 57.435 16.3625L56.4725 12.2325L59.6837 9.45004C60.27 8.94254 59.955 7.98004 59.185 7.91879L54.9587 7.56004L53.305 3.65754C53.0075 2.94879 51.9925 2.94879 51.695 3.65754L50.0412 7.55129L45.815 7.91004C45.045 7.97129 44.73 8.93379 45.3162 9.44129L48.5275 12.2238L47.565 16.3538C47.39 17.1063 48.2037 17.7013 48.8687 17.2988L52.5 15.1113Z" fill="#D8B87B"/>
<path d="M73.5 15.1113L77.1312 17.3075C77.7962 17.71 78.61 17.115 78.435 16.3625L77.4725 12.2325L80.6837 9.45004C81.27 8.94254 80.955 7.98004 80.185 7.91879L75.9587 7.56004L74.305 3.65754C74.0075 2.94879 72.9925 2.94879 72.695 3.65754L71.0412 7.55129L66.815 7.91004C66.045 7.97129 65.73 8.93379 66.3162 9.44129L69.5275 12.2238L68.565 16.3538C68.39 17.1063 69.2037 17.7013 69.8687 17.2988L73.5 15.1113Z" fill="#D8B87B"/>
<g clip-path="url(#clip0_5_98)">
<path d="M94.1123 15.9228L97.7436 18.1191C98.4086 18.5216 99.2223 17.9266 99.0473 17.1741L98.0848 13.0441L101.296 10.2616C101.882 9.75406 101.567 8.79156 100.797 8.73031L96.5711 8.37156L94.9173 4.46906C94.6198 3.76031 93.6048 3.76031 93.3073 4.46906L91.6536 8.36281L87.4273 8.72156C86.6573 8.78281 86.3423 9.74531 86.9286 10.2528L90.1398 13.0353L89.1773 17.1653C89.0023 17.9178 89.8161 18.5128 90.4811 18.1103L94.1123 15.9228Z" fill="#D8B87B"/>
</g>
<defs>
<clipPath id="clip0_5_98">
<rect width="21" height="21" fill="white" transform="translate(84)"/>
</clipPath>
</defs>
</svg>
