<svg width="65" height="65" viewBox="0 0 65 65" fill="none" xmlns="http://www.w3.org/2000/svg">
<path d="M46.7269 53.9419C51.7487 50.615 55.4439 45.6316 57.1688 39.86C58.8937 34.0884 58.5388 27.8945 56.166 22.3577C53.7932 16.8209 49.5528 12.2922 44.1839 9.56071C38.815 6.8292 32.6579 6.06808 26.7854 7.40999M46.7296 46.0417V53.9392L55.5208 53.9419M18.2054 11.1042C13.1981 14.4425 9.51947 19.4304 7.80931 25.2004C6.09915 30.9704 6.46569 37.1573 8.84519 42.685C11.2247 48.2126 15.4666 52.7313 20.833 55.4551C26.1994 58.1788 32.3509 58.9352 38.2173 57.5927M18.2054 11.1042V18.9583M18.2054 11.1042H9.47917" stroke="#2C3D2B" stroke-width="1.5" stroke-linecap="round" stroke-linejoin="round"/>
<path d="M33.8542 18.9583L24.375 32.5H40.625L31.1458 46.0416" stroke="#2C3D2B" stroke-width="1.5" stroke-linecap="round" stroke-linejoin="round"/>
</svg>
