<svg width="118" height="118" viewBox="0 0 118 118" fill="none" xmlns="http://www.w3.org/2000/svg">
<path d="M89.7291 51.625H96.5633C105.669 51.625 108.373 52.9279 108.152 59.413C107.793 70.1461 102.95 82.6197 83.5833 86.0417" stroke="#FAF9F5" stroke-width="1.5" stroke-linecap="round" stroke-linejoin="round"/>
<path d="M29.2345 101.357C12.6457 88.5983 10.2021 70.505 9.83825 51.625C9.68583 43.4682 12.0507 41.7916 22.9067 41.7916H75.4266C86.2826 41.7916 88.6524 43.4682 88.4951 51.625C88.1312 70.505 85.6926 88.5983 69.0988 101.357C64.3788 104.986 60.3963 105.708 53.6851 105.708H44.6482C37.9419 105.708 33.9594 104.99 29.2345 101.357Z" stroke="#FAF9F5" stroke-width="1.5" stroke-linecap="round" stroke-linejoin="round"/>
<path d="M49.1667 41.7916V66.375M55.6026 12.2916C52.9132 13.9584 49.1667 19.6666 49.1667 27.0416M37.0717 19.6666C37.0717 19.6666 34.4167 22.125 34.4167 27.0416M68.8382 19.6666C67.496 20.5025 66.375 24.5833 66.375 27.0416M41.8113 80.1269L43.247 71.0212C43.6698 68.3564 46.1872 66.375 49.1617 66.375C52.1314 66.375 54.6537 68.3564 55.0716 71.0212L56.5072 80.1269C57.2841 85.0288 41.1328 84.4339 41.8113 80.1269Z" stroke="#FAF9F5" stroke-width="1.5" stroke-linecap="round" stroke-linejoin="round"/>
</svg>
