<svg width="32" height="32" viewBox="0 0 32 32" fill="none" xmlns="http://www.w3.org/2000/svg">
<mask id="mask0_5_41" style="mask-type:alpha" maskUnits="userSpaceOnUse" x="0" y="0" width="32" height="32">
<rect width="32" height="32" fill="#D9D9D9"/>
</mask>
<g mask="url(#mask0_5_41)">
<path d="M8.03066 23.0563C9.164 22.2154 10.3987 21.5513 11.7347 21.064C13.0704 20.5769 14.4922 20.3333 16 20.3333C17.5078 20.3333 18.9296 20.5769 20.2653 21.064C21.6013 21.5513 22.836 22.2154 23.9693 23.0563C24.7982 22.1452 25.455 21.0906 25.9397 19.8923C26.4243 18.6941 26.6667 17.3967 26.6667 16C26.6667 13.0444 25.6278 10.5278 23.55 8.45C21.4722 6.37223 18.9556 5.33334 16 5.33334C13.0444 5.33334 10.5278 6.37223 8.45 8.45C6.37222 10.5278 5.33333 13.0444 5.33333 16C5.33333 17.3967 5.57566 18.6941 6.06033 19.8923C6.54499 21.0906 7.20177 22.1452 8.03066 23.0563ZM16.0003 17C14.783 17 13.7564 16.5822 12.9207 15.7467C12.0847 14.9109 11.6667 13.8843 11.6667 12.667C11.6667 11.4497 12.0844 10.4231 12.92 9.58734C13.7558 8.75134 14.7823 8.33334 15.9997 8.33334C17.217 8.33334 18.2436 8.75111 19.0793 9.58667C19.9153 10.4224 20.3333 11.449 20.3333 12.6663C20.3333 13.8837 19.9156 14.9102 19.08 15.746C18.2442 16.582 17.2177 17 16.0003 17ZM16 28.6667C14.2411 28.6667 12.5911 28.3359 11.05 27.6743C9.50888 27.0128 8.16833 26.1119 7.02833 24.9717C5.88811 23.8317 4.98722 22.4911 4.32566 20.95C3.66411 19.4089 3.33333 17.7589 3.33333 16C3.33333 14.2411 3.66411 12.5911 4.32566 11.05C4.98722 9.50889 5.88811 8.16834 7.02833 7.02834C8.16833 5.88811 9.50888 4.98723 11.05 4.32567C12.5911 3.66411 14.2411 3.33334 16 3.33334C17.7589 3.33334 19.4089 3.66411 20.95 4.32567C22.4911 4.98723 23.8317 5.88811 24.9717 7.02834C26.1119 8.16834 27.0128 9.50889 27.6743 11.05C28.3359 12.5911 28.6667 14.2411 28.6667 16C28.6667 17.7589 28.3359 19.4089 27.6743 20.95C27.0128 22.4911 26.1119 23.8317 24.9717 24.9717C23.8317 26.1119 22.4911 27.0128 20.95 27.6743C19.4089 28.3359 17.7589 28.6667 16 28.6667ZM16 26.6667C17.2033 26.6667 18.3636 26.4731 19.4807 26.086C20.5978 25.6987 21.5897 25.1572 22.4563 24.4617C21.5897 23.7914 20.6107 23.2692 19.5193 22.895C18.4278 22.5206 17.2547 22.3333 16 22.3333C14.7453 22.3333 13.5701 22.5183 12.4743 22.8883C11.3786 23.2586 10.4017 23.783 9.54366 24.4617C10.4103 25.1572 11.4022 25.6987 12.5193 26.086C13.6364 26.4731 14.7967 26.6667 16 26.6667ZM16 15C16.6633 15 17.218 14.7769 17.664 14.3307C18.1102 13.8847 18.3333 13.33 18.3333 12.6667C18.3333 12.0033 18.1102 11.4487 17.664 11.0027C17.218 10.5564 16.6633 10.3333 16 10.3333C15.3367 10.3333 14.782 10.5564 14.336 11.0027C13.8898 11.4487 13.6667 12.0033 13.6667 12.6667C13.6667 13.33 13.8898 13.8847 14.336 14.3307C14.782 14.7769 15.3367 15 16 15Z" fill="#2C3D2B"/>
</g>
</svg>
