<svg width="20" height="20" viewBox="0 0 20 20" fill="none" xmlns="http://www.w3.org/2000/svg">
<path fill-rule="evenodd" clip-rule="evenodd" d="M3.49999 4.33325L9.79999 9.05825C9.85769 9.10153 9.92787 9.12492 9.99999 9.12492C10.0721 9.12492 10.1423 9.10153 10.2 9.05825L16.5 4.33325H3.49999ZM17.3333 4.95825L10.8 9.85825C10.5692 10.0313 10.2885 10.1249 9.99999 10.1249C9.7115 10.1249 9.43078 10.0313 9.19999 9.85825L2.66666 4.95825V15.6666H17.3333V4.95825ZM2.49999 3.33325H17.5C17.721 3.33325 17.933 3.42105 18.0892 3.57733C18.2455 3.73361 18.3333 3.94557 18.3333 4.16659V15.8333C18.3333 16.0543 18.2455 16.2662 18.0892 16.4225C17.933 16.5788 17.721 16.6666 17.5 16.6666H2.49999C2.27898 16.6666 2.06701 16.5788 1.91073 16.4225C1.75445 16.2662 1.66666 16.0543 1.66666 15.8333V4.16659C1.66666 3.94557 1.75445 3.73361 1.91073 3.57733C2.06701 3.42105 2.27898 3.33325 2.49999 3.33325Z" fill="#4F704E"/>
<path fill-rule="evenodd" clip-rule="evenodd" d="M3.49999 4.33325L9.79999 9.05825C9.85769 9.10153 9.92787 9.12492 9.99999 9.12492C10.0721 9.12492 10.1423 9.10153 10.2 9.05825L16.5 4.33325H3.49999ZM17.3333 4.95825L10.8 9.85825C10.5692 10.0313 10.2885 10.1249 9.99999 10.1249C9.7115 10.1249 9.43078 10.0313 9.19999 9.85825L2.66666 4.95825V15.6666H17.3333V4.95825ZM2.49999 3.33325H17.5C17.721 3.33325 17.933 3.42105 18.0892 3.57733C18.2455 3.73361 18.3333 3.94557 18.3333 4.16659V15.8333C18.3333 16.0543 18.2455 16.2662 18.0892 16.4225C17.933 16.5788 17.721 16.6666 17.5 16.6666H2.49999C2.27898 16.6666 2.06701 16.5788 1.91073 16.4225C1.75445 16.2662 1.66666 16.0543 1.66666 15.8333V4.16659C1.66666 3.94557 1.75445 3.73361 1.91073 3.57733C2.06701 3.42105 2.27898 3.33325 2.49999 3.33325Z" fill="black" fill-opacity="0.2"/>
</svg>
