<svg width="118" height="118" viewBox="0 0 118 118" fill="none" xmlns="http://www.w3.org/2000/svg">
<path d="M59 39.3333V103.25M14.75 44.2499C14.75 42.9459 15.268 41.6954 16.1901 40.7733C17.1121 39.8513 18.3627 39.3333 19.6667 39.3333H98.3333C99.6373 39.3333 100.888 39.8513 101.81 40.7733C102.732 41.6954 103.25 42.9459 103.25 44.2499V54.0833C103.25 55.3872 102.732 56.6378 101.81 57.5599C100.888 58.4819 99.6373 58.9999 98.3333 58.9999H19.6667C18.3627 58.9999 17.1121 58.4819 16.1901 57.5599C15.268 56.6378 14.75 55.3872 14.75 54.0833V44.2499Z" stroke="#FAF9F5" stroke-width="2" stroke-linecap="round" stroke-linejoin="round"/>
<path d="M93.4167 59V93.4166C93.4167 96.0246 92.3807 98.5257 90.5366 100.37C88.6925 102.214 86.1913 103.25 83.5833 103.25H34.4167C31.8087 103.25 29.3076 102.214 27.4635 100.37C25.6194 98.5257 24.5833 96.0246 24.5833 93.4166V59M36.875 39.3333C33.6151 39.3333 30.4886 38.0383 28.1835 35.7331C25.8784 33.428 24.5833 30.3016 24.5833 27.0416C24.5833 23.7817 25.8784 20.6552 28.1835 18.3501C30.4886 16.045 33.6151 14.75 36.875 14.75C41.618 14.6673 46.266 16.9686 50.2126 21.3538C54.1593 25.739 57.2215 32.0045 59 39.3333C60.7785 32.0045 63.8407 25.739 67.7874 21.3538C71.7341 16.9686 76.382 14.6673 81.125 14.75C84.385 14.75 87.5114 16.045 89.8165 18.3501C92.1217 20.6552 93.4167 23.7817 93.4167 27.0416C93.4167 30.3016 92.1217 33.428 89.8165 35.7331C87.5114 38.0383 84.385 39.3333 81.125 39.3333" stroke="#FAF9F5" stroke-width="2" stroke-linecap="round" stroke-linejoin="round"/>
</svg>
