<svg width="20" height="20" viewBox="0 0 20 20" fill="none" xmlns="http://www.w3.org/2000/svg">
<path d="M5.33334 3.96676C6.57527 2.74967 8.24734 2.07187 9.9862 2.08065C11.7251 2.08943 13.3902 2.78409 14.6198 4.01366C15.8493 5.24324 16.544 6.90837 16.5528 8.64723C16.5616 10.3861 15.8838 12.0582 14.6667 13.3001L11.1783 16.7884C10.8658 17.1009 10.4419 17.2764 10 17.2764C9.55807 17.2764 9.13422 17.1009 8.82167 16.7884L5.33334 13.3001C4.09575 12.0624 3.40048 10.3837 3.40048 8.63343C3.40048 6.88311 4.09575 5.20448 5.33334 3.96676Z" stroke="#4F704E" stroke-opacity="0.83" stroke-width="1.5" stroke-linejoin="round"/>
<path d="M10 11.1335C11.3807 11.1335 12.5 10.0143 12.5 8.63354C12.5 7.25283 11.3807 6.13354 10 6.13354C8.61929 6.13354 7.5 7.25283 7.5 8.63354C7.5 10.0143 8.61929 11.1335 10 11.1335Z" stroke="#4F704E" stroke-opacity="0.83" stroke-width="1.5" stroke-linecap="round" stroke-linejoin="round"/>
</svg>
