<svg width="32" height="32" viewBox="0 0 32 32" fill="none" xmlns="http://www.w3.org/2000/svg">
<mask id="mask0_5_35" style="mask-type:alpha" maskUnits="userSpaceOnUse" x="0" y="0" width="32" height="32">
<rect width="32" height="32" fill="#D9D9D9"/>
</mask>
<g mask="url(#mask0_5_35)">
<path d="M26.0563 27.436L17.682 19.0613C17.0153 19.6118 16.2486 20.0426 15.382 20.3537C14.5153 20.6648 13.6187 20.8203 12.6923 20.8203C10.4134 20.8203 8.48474 20.0313 6.90629 18.4533C5.32785 16.8753 4.53863 14.9471 4.53863 12.6687C4.53863 10.3904 5.32763 8.46156 6.90563 6.882C8.48363 5.30267 10.4118 4.513 12.6903 4.513C14.9685 4.513 16.8974 5.30222 18.477 6.88067C20.0563 8.45911 20.846 10.3878 20.846 12.6667C20.846 13.6189 20.6862 14.5283 20.3666 15.395C20.0469 16.2617 19.6203 17.0154 19.087 17.6563L27.4613 26.0307L26.0563 27.436ZM12.6923 18.8207C14.4103 18.8207 15.8654 18.2244 17.0576 17.032C18.2501 15.8398 18.8463 14.3847 18.8463 12.6667C18.8463 10.9487 18.2501 9.49356 17.0576 8.30133C15.8654 7.10889 14.4103 6.51267 12.6923 6.51267C10.9743 6.51267 9.51918 7.10889 8.32696 8.30133C7.13452 9.49356 6.53829 10.9487 6.53829 12.6667C6.53829 14.3847 7.13452 15.8398 8.32696 17.032C9.51918 18.2244 10.9743 18.8207 12.6923 18.8207Z" fill="#2C3D2B"/>
</g>
</svg>
